PathFileType	4	(X/Y/Z)	OpenSim_Sub06_EMGStiffKnee_Magnet.trc
DataRate	CameraRate	NumFrames	NumMarkers	Units	OrigDataRate	OrigDataStartFrame	OrigNumFrames
100	100	20	8	m	100	4075	5432
Frame#	Time	torso_imu_offset_imu	pelvis_imu_offset_imu	tibia_r_imu_offset_imu	femur_r_imu_offset_imu	tibia_l_imu_offset_imu	femur_l_imu_offset_imu	toes_r_imu_offset_imu	toes_l_imu_offset_imu
				X1	Y1	Z1	X2	Y2	Z2	X3	Y3	Z3	X4	Y4	Z4	X5	Y5	Z5	X6	Y6	Z6	X7	Y7	Z7	X8		Y8	Z8	

4075	40.74000000	-0.91479500	-0.16894500	0.10888700	-0.49023400	0.21850600	-0.74804700	-0.66748000	-0.36743200	-0.22216800	-0.79052700	-0.24169900	0.08422900	-0.57446300	0.57324200	0.06274400	-0.61621100	0.43457000	0.34033200	-0.57226600	-0.09668000	-0.52685500	-0.72241200	-0.04614300	-0.38403300
4076	40.75000000	-0.91894500	-0.17114300	0.10229500	-0.49218800	0.21435500	-0.74780300	-0.66723600	-0.36938500	-0.22436500	-0.79101600	-0.23120100	0.08593800	-0.56616200	0.59082000	0.05957000	-0.61206100	0.44555700	0.33349600	-0.57861300	-0.09668000	-0.51025400	-0.73144500	-0.03979500	-0.38427700
4077	40.76000000	-0.92114300	-0.16699200	0.10009800	-0.49218800	0.21240200	-0.74780300	-0.66479500	-0.38623000	-0.21484400	-0.79516600	-0.22705100	0.08593800	-0.56201200	0.59960900	0.05004900	-0.60815400	0.45410200	0.34008800	-0.59204100	-0.13793900	-0.48681600	-0.73144500	-0.04418900	-0.38183600
4078	40.77000000	-0.92309600	-0.16894500	0.10009800	-0.48974600	0.20385700	-0.75439500	-0.65600600	-0.39648400	-0.21435500	-0.79541000	-0.22094700	0.09252900	-0.54907200	0.61279300	0.03808600	-0.60351600	0.44995100	0.33569300	-0.60205100	-0.15844700	-0.46362300	-0.73388700	-0.03979500	-0.37304700
4079	40.78000000	-0.92358400	-0.16064500	0.09301800	-0.49585000	0.19751000	-0.75415000	-0.64917000	-0.40918000	-0.21386700	-0.79565400	-0.21069300	0.09204100	-0.53369100	0.62158200	0.03735400	-0.60595700	0.45849600	0.33325200	-0.60351600	-0.17700200	-0.46337900	-0.73388700	-0.03540000	-0.37060500
4080	40.79000000	-0.92334000	-0.16259800	0.08886700	-0.50195300	0.18701200	-0.74682600	-0.64917000	-0.40918000	-0.21167000	-0.78735400	-0.21069300	0.11059600	-0.52490200	0.63061500	0.03466800	-0.59960900	0.46728500	0.32421900	-0.58056600	-0.18457000	-0.49218800	-0.73852500	-0.03100600	-0.36621100
4081	40.80000000	-0.91894500	-0.16479500	0.08886700	-0.50830100	0.18481400	-0.74902300	-0.64526400	-0.40478500	-0.22973600	-0.79150400	-0.21679700	0.12451200	-0.51196300	0.64379900	0.02929700	-0.60839800	0.46508800	0.32421900	-0.58056600	-0.17651400	-0.49438500	-0.74316400	-0.02685500	-0.35058600
4082	40.81000000	-0.92114300	-0.16259800	0.08447300	-0.50830100	0.18261700	-0.74194300	-0.63647500	-0.41308600	-0.24511700	-0.78710900	-0.22314500	0.12915000	-0.48999000	0.65918000	0.02832000	-0.60839800	0.46289100	0.31518600	-0.57617200	-0.18652300	-0.48803700	-0.75048800	-0.01367200	-0.33935500
4083	40.82000000	-0.92529300	-0.16699200	0.08007800	-0.50830100	0.18261700	-0.74438500	-0.62524400	-0.43603500	-0.23974600	-0.78491200	-0.22509800	0.12939500	-0.47680700	0.67236300	0.02978500	-0.60815400	0.45629900	0.31762700	-0.58056600	-0.18261700	-0.48608400	-0.76391600	-0.00952100	-0.32592800
4084	40.83000000	-0.92529300	-0.16894500	0.07592800	-0.51293900	0.19311500	-0.74243200	-0.60791000	-0.45288100	-0.23242200	-0.78930700	-0.21679700	0.12207000	-0.45703100	0.68335000	0.03564500	-0.61010700	0.45190400	0.31543000	-0.58276400	-0.17846700	-0.48803700	-0.76464800	0.00805700	-0.30127000
4085	40.84000000	-0.92773400	-0.16284200	0.08227500	-0.50659200	0.19946300	-0.74731400	-0.59033200	-0.47583000	-0.23168900	-0.78540000	-0.21264600	0.11059600	-0.43945300	0.69213900	0.04174800	-0.62304700	0.43872100	0.32006800	-0.58056600	-0.17846700	-0.48193400	-0.77417000	0.02319300	-0.28344700
4086	40.85000000	-0.92773400	-0.16284200	0.08007800	-0.50683600	0.20581100	-0.74755900	-0.58154300	-0.49462900	-0.21777300	-0.78955100	-0.21069300	0.10815400	-0.41284200	0.70532200	0.04736300	-0.62695300	0.42773400	0.33129900	-0.58496100	-0.16845700	-0.48217800	-0.78393600	0.04711900	-0.25659200
4087	40.86000000	-0.93188500	-0.16699200	0.08667000	-0.50439500	0.19751000	-0.74487300	-0.57446300	-0.51342800	-0.19458000	-0.79174800	-0.20849600	0.10815400	-0.39794900	0.72509800	0.05957000	-0.64184600	0.40820300	0.32275400	-0.58911100	-0.17041000	-0.48193400	-0.79150400	0.06445300	-0.21606400
4088	40.87000000	-0.93432600	-0.15869100	0.08642600	-0.50878900	0.19751000	-0.75170900	-0.57202100	-0.52807600	-0.17187500	-0.78930700	-0.21484400	0.11059600	-0.37768600	0.72729500	0.05932600	-0.65454100	0.39282200	0.31835900	-0.59570300	-0.16235400	-0.47802700	-0.79248000	0.09057600	-0.17797900
4089	40.88000000	-0.92993200	-0.15649400	0.08642600	-0.50634800	0.19116200	-0.74682600	-0.57397500	-0.53442400	-0.15820300	-0.78491200	-0.22314500	0.11547900	-0.35131800	0.74292000	0.05590800	-0.66918900	0.37524400	0.29834000	-0.59570300	-0.16259800	-0.47387700	-0.79711900	0.09936500	-0.14648400
4090	40.89000000	-0.93872100	-0.15234400	0.09057600	-0.50585900	0.17651400	-0.75097700	-0.56762700	-0.53857400	-0.14697300	-0.78051800	-0.23535200	0.10913100	-0.33374000	0.75170900	0.03955100	-0.68872100	0.36181600	0.29394500	-0.59545900	-0.16650400	-0.47802700	-0.80249000	0.11865200	-0.10400400
4091	40.90000000	-0.93237300	-0.14794900	0.09692400	-0.50146500	0.17236300	-0.75561500	-0.56982400	-0.53662100	-0.13574200	-0.77587900	-0.25195300	0.11669900	-0.31396500	0.76049800	0.03222700	-0.69482400	0.34448200	0.27856400	-0.59350600	-0.16235400	-0.48022500	-0.80322300	0.14282200	-0.06811500
4092	40.91000000	-0.93457000	-0.14599600	0.09692400	-0.50781200	0.16821300	-0.76245100	-0.57397500	-0.53662100	-0.13793900	-0.76464800	-0.27270500	0.12207000	-0.29174800	0.76733400	0.01611300	-0.70752000	0.33544900	0.27417000	-0.59545900	-0.16650400	-0.47802700	-0.79736300	0.16015600	-0.03442400
4093	40.92000000	-0.94091800	-0.14599600	0.09252900	-0.50756800	0.16381800	-0.76220700	-0.57153300	-0.54077100	-0.13793900	-0.76416000	-0.28906200	0.12036100	-0.27392600	0.77172900	0.00439500	-0.71557600	0.31152300	0.26318400	-0.59545900	-0.17065400	-0.47802700	-0.79565400	0.17553700	-0.03002900
4094	40.93000000	-0.93676800	-0.14379900	0.09887700	-0.49877900	0.15771500	-0.77368200	-0.57153300	-0.54272500	-0.15576200	-0.75756800	-0.29956100	0.12524400	-0.26538100	0.77612300	-0.00708000	-0.72192400	0.30273400	0.25439500	-0.59130900	-0.16650400	-0.48217800	-0.79614300	0.18872100	-0.02783200
